<mxfile host="app.diagrams.net" modified="2023-02-23T14:42:44.163Z" agent="5.0 (Windows NT 10.0; Win64; x64) AppleWebKit/537.36 (KHTML, like Gecko) Chrome/110.0.0.0 Safari/537.36 Edg/110.0.1587.50" etag="OZ2kab3j5ZzzxDYYmHf3" version="20.8.22" type="github">
  <diagram name="Page-1" id="RfIlJ-SFWWCpv33yda18">
    <mxGraphModel dx="1961" dy="635" grid="1" gridSize="10" guides="1" tooltips="1" connect="1" arrows="1" fold="1" page="1" pageScale="1" pageWidth="850" pageHeight="1100" math="0" shadow="0">
      <root>
        <mxCell id="0" />
        <mxCell id="1" parent="0" />
        <mxCell id="rt-z2PcK_egYxDucwFoX-2" value="AWS Cloud" style="points=[[0,0],[0.25,0],[0.5,0],[0.75,0],[1,0],[1,0.25],[1,0.5],[1,0.75],[1,1],[0.75,1],[0.5,1],[0.25,1],[0,1],[0,0.75],[0,0.5],[0,0.25]];outlineConnect=0;gradientColor=none;html=1;whiteSpace=wrap;fontSize=12;fontStyle=0;container=1;pointerEvents=0;collapsible=0;recursiveResize=0;shape=mxgraph.aws4.group;grIcon=mxgraph.aws4.group_aws_cloud_alt;strokeColor=#232F3E;fillColor=none;verticalAlign=top;align=left;spacingLeft=30;fontColor=#232F3E;dashed=0;" parent="1" vertex="1">
          <mxGeometry x="-160" y="280" width="1000" height="440" as="geometry" />
        </mxCell>
        <mxCell id="rt-z2PcK_egYxDucwFoX-3" value="Region" style="points=[[0,0],[0.25,0],[0.5,0],[0.75,0],[1,0],[1,0.25],[1,0.5],[1,0.75],[1,1],[0.75,1],[0.5,1],[0.25,1],[0,1],[0,0.75],[0,0.5],[0,0.25]];outlineConnect=0;gradientColor=none;html=1;whiteSpace=wrap;fontSize=12;fontStyle=0;container=1;pointerEvents=0;collapsible=0;recursiveResize=0;shape=mxgraph.aws4.group;grIcon=mxgraph.aws4.group_region;strokeColor=#147EBA;fillColor=none;verticalAlign=top;align=left;spacingLeft=30;fontColor=#147EBA;dashed=1;" parent="1" vertex="1">
          <mxGeometry x="-70" y="340" width="890" height="360" as="geometry" />
        </mxCell>
        <mxCell id="rt-z2PcK_egYxDucwFoX-4" value="Availability Zone" style="fillColor=none;strokeColor=#147EBA;dashed=1;verticalAlign=top;fontStyle=0;fontColor=#147EBA;" parent="rt-z2PcK_egYxDucwFoX-3" vertex="1">
          <mxGeometry x="100" y="30" width="290" height="310" as="geometry" />
        </mxCell>
        <mxCell id="rt-z2PcK_egYxDucwFoX-5" value="Availability Zone" style="fillColor=none;strokeColor=#147EBA;dashed=1;verticalAlign=top;fontStyle=0;fontColor=#147EBA;" parent="rt-z2PcK_egYxDucwFoX-3" vertex="1">
          <mxGeometry x="530" y="30" width="310" height="300" as="geometry" />
        </mxCell>
        <mxCell id="rt-z2PcK_egYxDucwFoX-6" value="Public subnet -&amp;nbsp;&lt;br&gt;public-A&amp;nbsp;" style="points=[[0,0],[0.25,0],[0.5,0],[0.75,0],[1,0],[1,0.25],[1,0.5],[1,0.75],[1,1],[0.75,1],[0.5,1],[0.25,1],[0,1],[0,0.75],[0,0.5],[0,0.25]];outlineConnect=0;gradientColor=none;html=1;whiteSpace=wrap;fontSize=12;fontStyle=0;container=1;pointerEvents=0;collapsible=0;recursiveResize=0;shape=mxgraph.aws4.group;grIcon=mxgraph.aws4.group_security_group;grStroke=0;strokeColor=#248814;fillColor=#E9F3E6;verticalAlign=top;align=left;spacingLeft=30;fontColor=#248814;dashed=0;" parent="rt-z2PcK_egYxDucwFoX-3" vertex="1">
          <mxGeometry x="130" y="80" width="190" height="210" as="geometry" />
        </mxCell>
        <mxCell id="rt-z2PcK_egYxDucwFoX-7" value="Private subnet&amp;nbsp;&lt;br&gt;&amp;nbsp;Private-A -&amp;nbsp;10.0.10.0/24" style="points=[[0,0],[0.25,0],[0.5,0],[0.75,0],[1,0],[1,0.25],[1,0.5],[1,0.75],[1,1],[0.75,1],[0.5,1],[0.25,1],[0,1],[0,0.75],[0,0.5],[0,0.25]];outlineConnect=0;gradientColor=none;html=1;whiteSpace=wrap;fontSize=12;fontStyle=0;container=1;pointerEvents=0;collapsible=0;recursiveResize=0;shape=mxgraph.aws4.group;grIcon=mxgraph.aws4.group_security_group;grStroke=0;strokeColor=#147EBA;fillColor=#E6F2F8;verticalAlign=top;align=left;spacingLeft=30;fontColor=#147EBA;dashed=0;" parent="rt-z2PcK_egYxDucwFoX-3" vertex="1">
          <mxGeometry x="600" y="80" width="220" height="220" as="geometry" />
        </mxCell>
        <mxCell id="rt-z2PcK_egYxDucwFoX-8" value="Orion" style="text;html=1;strokeColor=none;fillColor=none;align=center;verticalAlign=middle;whiteSpace=wrap;rounded=0;" parent="rt-z2PcK_egYxDucwFoX-3" vertex="1">
          <mxGeometry x="70" width="60" height="30" as="geometry" />
        </mxCell>
        <mxCell id="rt-z2PcK_egYxDucwFoX-20" value="Security group&#xa;SG-bastion" style="fillColor=none;strokeColor=#DD3522;verticalAlign=top;fontStyle=0;fontColor=#DD3522;" parent="rt-z2PcK_egYxDucwFoX-3" vertex="1">
          <mxGeometry x="160" y="120" width="130" height="120" as="geometry" />
        </mxCell>
        <mxCell id="bbcitxbQNmKWr8xey9Zj-7" value="" style="sketch=0;points=[[0,0,0],[0.25,0,0],[0.5,0,0],[0.75,0,0],[1,0,0],[0,1,0],[0.25,1,0],[0.5,1,0],[0.75,1,0],[1,1,0],[0,0.25,0],[0,0.5,0],[0,0.75,0],[1,0.25,0],[1,0.5,0],[1,0.75,0]];outlineConnect=0;fontColor=#232F3E;gradientColor=#F78E04;gradientDirection=north;fillColor=#D05C17;strokeColor=#ffffff;dashed=0;verticalLabelPosition=bottom;verticalAlign=top;align=center;html=1;fontSize=12;fontStyle=0;aspect=fixed;shape=mxgraph.aws4.resourceIcon;resIcon=mxgraph.aws4.compute;" vertex="1" parent="rt-z2PcK_egYxDucwFoX-3">
          <mxGeometry x="676" y="166" width="48" height="48" as="geometry" />
        </mxCell>
        <mxCell id="bbcitxbQNmKWr8xey9Zj-8" value="Private" style="text;html=1;strokeColor=none;fillColor=none;align=center;verticalAlign=middle;whiteSpace=wrap;rounded=0;" vertex="1" parent="rt-z2PcK_egYxDucwFoX-3">
          <mxGeometry x="672" y="214" width="60" height="30" as="geometry" />
        </mxCell>
        <mxCell id="bbcitxbQNmKWr8xey9Zj-9" value="Security group&#xa;SG-Private" style="fillColor=none;strokeColor=#DD3522;verticalAlign=top;fontStyle=0;fontColor=#DD3522;" vertex="1" parent="rt-z2PcK_egYxDucwFoX-3">
          <mxGeometry x="630" y="125" width="130" height="120" as="geometry" />
        </mxCell>
        <mxCell id="rt-z2PcK_egYxDucwFoX-10" value="VPC" style="points=[[0,0],[0.25,0],[0.5,0],[0.75,0],[1,0],[1,0.25],[1,0.5],[1,0.75],[1,1],[0.75,1],[0.5,1],[0.25,1],[0,1],[0,0.75],[0,0.5],[0,0.25]];outlineConnect=0;gradientColor=none;html=1;whiteSpace=wrap;fontSize=12;fontStyle=0;container=1;pointerEvents=0;collapsible=0;recursiveResize=0;shape=mxgraph.aws4.group;grIcon=mxgraph.aws4.group_vpc;strokeColor=#248814;fillColor=none;verticalAlign=top;align=left;spacingLeft=30;fontColor=#AAB7B8;dashed=0;" parent="1" vertex="1">
          <mxGeometry x="-130" y="310" width="960" height="400" as="geometry" />
        </mxCell>
        <mxCell id="rt-z2PcK_egYxDucwFoX-11" value="1 - cloudacademy-labs" style="text;html=1;strokeColor=none;fillColor=none;align=center;verticalAlign=middle;whiteSpace=wrap;rounded=0;" parent="rt-z2PcK_egYxDucwFoX-10" vertex="1">
          <mxGeometry x="30" width="210" height="30" as="geometry" />
        </mxCell>
        <mxCell id="rt-z2PcK_egYxDucwFoX-19" value="" style="sketch=0;points=[[0,0,0],[0.25,0,0],[0.5,0,0],[0.75,0,0],[1,0,0],[0,1,0],[0.25,1,0],[0.5,1,0],[0.75,1,0],[1,1,0],[0,0.25,0],[0,0.5,0],[0,0.75,0],[1,0.25,0],[1,0.5,0],[1,0.75,0]];outlineConnect=0;fontColor=#232F3E;gradientColor=#F78E04;gradientDirection=north;fillColor=#D05C17;strokeColor=#ffffff;dashed=0;verticalLabelPosition=bottom;verticalAlign=top;align=center;html=1;fontSize=12;fontStyle=0;aspect=fixed;shape=mxgraph.aws4.resourceIcon;resIcon=mxgraph.aws4.compute;" parent="rt-z2PcK_egYxDucwFoX-10" vertex="1">
          <mxGeometry x="262" y="191" width="48" height="48" as="geometry" />
        </mxCell>
        <mxCell id="rt-z2PcK_egYxDucwFoX-9" value="bastion&amp;nbsp;" style="text;html=1;strokeColor=none;fillColor=none;align=center;verticalAlign=middle;whiteSpace=wrap;rounded=0;" parent="rt-z2PcK_egYxDucwFoX-10" vertex="1">
          <mxGeometry x="256" y="240" width="60" height="30" as="geometry" />
        </mxCell>
        <mxCell id="rt-z2PcK_egYxDucwFoX-16" value="" style="sketch=0;outlineConnect=0;fontColor=#232F3E;gradientColor=none;fillColor=#4D27AA;strokeColor=none;dashed=0;verticalLabelPosition=bottom;verticalAlign=top;align=center;html=1;fontSize=12;fontStyle=0;aspect=fixed;pointerEvents=1;shape=mxgraph.aws4.route_table;" parent="rt-z2PcK_egYxDucwFoX-10" vertex="1">
          <mxGeometry x="89" y="280" width="41.06" height="40" as="geometry" />
        </mxCell>
        <mxCell id="rt-z2PcK_egYxDucwFoX-23" value="PublicRouteTable" style="text;html=1;strokeColor=none;fillColor=none;align=center;verticalAlign=middle;whiteSpace=wrap;rounded=0;" parent="rt-z2PcK_egYxDucwFoX-10" vertex="1">
          <mxGeometry x="79.53" y="250" width="60" height="30" as="geometry" />
        </mxCell>
        <mxCell id="rt-z2PcK_egYxDucwFoX-17" value="" style="sketch=0;outlineConnect=0;fontColor=#232F3E;gradientColor=none;fillColor=#4D27AA;strokeColor=none;dashed=0;verticalLabelPosition=bottom;verticalAlign=top;align=center;html=1;fontSize=12;fontStyle=0;aspect=fixed;pointerEvents=1;shape=mxgraph.aws4.route_table;" parent="rt-z2PcK_egYxDucwFoX-10" vertex="1">
          <mxGeometry x="534" y="279" width="41.06" height="40" as="geometry" />
        </mxCell>
        <mxCell id="rt-z2PcK_egYxDucwFoX-22" value="PrivateRouteTable" style="text;html=1;strokeColor=none;fillColor=none;align=center;verticalAlign=middle;whiteSpace=wrap;rounded=0;" parent="rt-z2PcK_egYxDucwFoX-10" vertex="1">
          <mxGeometry x="530" y="249" width="60" height="30" as="geometry" />
        </mxCell>
        <mxCell id="rt-z2PcK_egYxDucwFoX-18" value="0.0.0.0/0 -&amp;gt; IG (lab-gw" style="text;html=1;strokeColor=none;fillColor=none;align=center;verticalAlign=middle;whiteSpace=wrap;rounded=0;" parent="rt-z2PcK_egYxDucwFoX-10" vertex="1">
          <mxGeometry x="50" y="320" width="130" height="30" as="geometry" />
        </mxCell>
        <mxCell id="bbcitxbQNmKWr8xey9Zj-1" value="" style="sketch=0;outlineConnect=0;fontColor=#232F3E;gradientColor=none;fillColor=#4D27AA;strokeColor=none;dashed=0;verticalLabelPosition=bottom;verticalAlign=top;align=center;html=1;fontSize=12;fontStyle=0;aspect=fixed;pointerEvents=1;shape=mxgraph.aws4.network_access_control_list;" vertex="1" parent="rt-z2PcK_egYxDucwFoX-10">
          <mxGeometry x="522" y="130" width="40" height="40" as="geometry" />
        </mxCell>
        <mxCell id="bbcitxbQNmKWr8xey9Zj-3" value="Private-NACL" style="text;html=1;strokeColor=none;fillColor=none;align=center;verticalAlign=middle;whiteSpace=wrap;rounded=0;" vertex="1" parent="rt-z2PcK_egYxDucwFoX-10">
          <mxGeometry x="500" y="100" width="84" height="30" as="geometry" />
        </mxCell>
        <mxCell id="bbcitxbQNmKWr8xey9Zj-6" value="&lt;b style=&quot;font-size: 10px;&quot;&gt;&lt;em style=&quot;color: rgb(34, 47, 63); font-family: Lato, &amp;quot;Helvetica Neue&amp;quot;, Helvetica, Roboto, sans-serif; text-align: left; background-color: rgb(255, 255, 255);&quot;&gt;&lt;font style=&quot;font-size: 10px;&quot;&gt;TCP -&amp;gt; 1024-65535&amp;nbsp;&lt;br&gt;&amp;nbsp;&lt;/font&gt;&lt;/em&gt;&lt;font style=&quot;font-size: 10px;&quot; face=&quot;Lato, Helvetica Neue, Helvetica, Roboto, sans-serif&quot; color=&quot;#222f3f&quot;&gt;&lt;i&gt;10.0.20.0/24&lt;/i&gt;&lt;/font&gt;&lt;/b&gt;" style="text;html=1;strokeColor=none;fillColor=none;align=center;verticalAlign=middle;whiteSpace=wrap;rounded=0;" vertex="1" parent="rt-z2PcK_egYxDucwFoX-10">
          <mxGeometry x="450" y="170" width="174" height="30" as="geometry" />
        </mxCell>
        <mxCell id="bbcitxbQNmKWr8xey9Zj-11" value="" style="sketch=0;outlineConnect=0;fontColor=#232F3E;gradientColor=none;fillColor=#4D27AA;strokeColor=none;dashed=0;verticalLabelPosition=bottom;verticalAlign=top;align=center;html=1;fontSize=12;fontStyle=0;aspect=fixed;pointerEvents=1;shape=mxgraph.aws4.nat_gateway;" vertex="1" parent="rt-z2PcK_egYxDucwFoX-10">
          <mxGeometry x="460" y="280" width="40" height="40" as="geometry" />
        </mxCell>
        <mxCell id="bbcitxbQNmKWr8xey9Zj-13" value="" style="html=1;endArrow=none;elbow=vertical;startArrow=none;endFill=0;strokeColor=#545B64;rounded=0;" edge="1" parent="rt-z2PcK_egYxDucwFoX-10">
          <mxGeometry width="100" relative="1" as="geometry">
            <mxPoint x="380" y="300" as="sourcePoint" />
            <mxPoint x="460" y="300" as="targetPoint" />
          </mxGeometry>
        </mxCell>
        <mxCell id="bbcitxbQNmKWr8xey9Zj-14" value="0.0.0.0/0 -&amp;gt;&amp;nbsp; (NAT-gw)" style="text;html=1;strokeColor=none;fillColor=none;align=center;verticalAlign=middle;whiteSpace=wrap;rounded=0;" vertex="1" parent="rt-z2PcK_egYxDucwFoX-10">
          <mxGeometry x="460" y="330" width="130" height="30" as="geometry" />
        </mxCell>
        <mxCell id="bbcitxbQNmKWr8xey9Zj-15" value="NAT-gw" style="text;html=1;strokeColor=none;fillColor=none;align=center;verticalAlign=middle;whiteSpace=wrap;rounded=0;" vertex="1" parent="rt-z2PcK_egYxDucwFoX-10">
          <mxGeometry x="450" y="259" width="60" height="30" as="geometry" />
        </mxCell>
        <mxCell id="rt-z2PcK_egYxDucwFoX-12" value="" style="sketch=0;outlineConnect=0;fontColor=#232F3E;gradientColor=none;fillColor=#4D27AA;strokeColor=none;dashed=0;verticalLabelPosition=bottom;verticalAlign=top;align=center;html=1;fontSize=12;fontStyle=0;aspect=fixed;pointerEvents=1;shape=mxgraph.aws4.internet_gateway;" parent="1" vertex="1">
          <mxGeometry x="-340" y="471" width="78" height="78" as="geometry" />
        </mxCell>
        <mxCell id="rt-z2PcK_egYxDucwFoX-13" value="2 - labs-gw" style="text;html=1;strokeColor=none;fillColor=none;align=center;verticalAlign=middle;whiteSpace=wrap;rounded=0;" parent="1" vertex="1">
          <mxGeometry x="390" y="148" width="84" height="30" as="geometry" />
        </mxCell>
        <mxCell id="rt-z2PcK_egYxDucwFoX-15" value="" style="html=1;endArrow=none;elbow=vertical;startArrow=block;startFill=1;strokeColor=#545B64;rounded=0;" parent="1" target="rt-z2PcK_egYxDucwFoX-12" edge="1" source="rt-z2PcK_egYxDucwFoX-10">
          <mxGeometry width="100" relative="1" as="geometry">
            <mxPoint x="-180" y="559" as="sourcePoint" />
            <mxPoint x="420" y="360" as="targetPoint" />
          </mxGeometry>
        </mxCell>
        <mxCell id="rt-z2PcK_egYxDucwFoX-24" value="" style="edgeStyle=orthogonalEdgeStyle;html=1;endArrow=block;elbow=vertical;startArrow=none;endFill=1;strokeColor=#545B64;rounded=0;" parent="1" source="rt-z2PcK_egYxDucwFoX-16" edge="1">
          <mxGeometry width="100" relative="1" as="geometry">
            <mxPoint x="390" y="510" as="sourcePoint" />
            <mxPoint x="60" y="610" as="targetPoint" />
          </mxGeometry>
        </mxCell>
        <mxCell id="rt-z2PcK_egYxDucwFoX-26" value="" style="html=1;endArrow=block;elbow=vertical;startArrow=none;endFill=1;strokeColor=#545B64;rounded=0;" parent="1" source="rt-z2PcK_egYxDucwFoX-17" edge="1">
          <mxGeometry width="100" relative="1" as="geometry">
            <mxPoint x="10" y="620" as="sourcePoint" />
            <mxPoint x="530" y="610" as="targetPoint" />
          </mxGeometry>
        </mxCell>
        <mxCell id="bbcitxbQNmKWr8xey9Zj-4" value="" style="html=1;endArrow=block;elbow=vertical;startArrow=none;endFill=1;strokeColor=#545B64;rounded=0;entryX=0.226;entryY=0.3;entryDx=0;entryDy=0;entryPerimeter=0;" edge="1" parent="1" source="bbcitxbQNmKWr8xey9Zj-1" target="rt-z2PcK_egYxDucwFoX-5">
          <mxGeometry width="100" relative="1" as="geometry">
            <mxPoint x="10" y="620" as="sourcePoint" />
            <mxPoint x="70" y="620" as="targetPoint" />
          </mxGeometry>
        </mxCell>
        <mxCell id="bbcitxbQNmKWr8xey9Zj-10" value="echo $SSH_AUTH_SOCK&lt;br&gt;&lt;div style=&quot;&quot;&gt;&lt;span style=&quot;background-color: initial;&quot;&gt;ssh ec2-user@PrivateInstancePrivateIPaddress&lt;/span&gt;&lt;/div&gt;" style="text;html=1;strokeColor=none;fillColor=none;align=left;verticalAlign=middle;whiteSpace=wrap;rounded=0;fontSize=10;" vertex="1" parent="1">
          <mxGeometry x="320" y="790" width="220" height="30" as="geometry" />
        </mxCell>
      </root>
    </mxGraphModel>
  </diagram>
</mxfile>
